<svg width="189" height="523" viewBox="0 0 189 523" fill="none" xmlns="http://www.w3.org/2000/svg">
<rect x="54.5" y="423.5" width="99" height="99" stroke="#F5F5F5"/>
<rect x="0.5" y="0.5" width="53" height="53" stroke="#F5F5F5"/>
<path d="M107.171 231.414C107.171 232.29 106.461 233 105.586 233C104.71 233 104 232.29 104 231.414C104 230.539 104.71 229.829 105.586 229.829C106.461 229.829 107.171 230.539 107.171 231.414Z" fill="#B1B1B1"/>
<path d="M107.171 204.457C107.171 205.333 106.461 206.043 105.586 206.043C104.71 206.043 104 205.333 104 204.457C104 203.581 104.71 202.871 105.586 202.871C106.461 202.871 107.171 203.581 107.171 204.457Z" fill="#B1B1B1"/>
<path d="M107.171 177.5C107.171 178.376 106.461 179.086 105.586 179.086C104.71 179.086 104 178.376 104 177.5C104 176.624 104.71 175.914 105.586 175.914C106.461 175.914 107.171 176.624 107.171 177.5Z" fill="#B1B1B1"/>
<path d="M107.171 150.543C107.171 151.419 106.461 152.129 105.586 152.129C104.71 152.129 104 151.419 104 150.543C104 149.667 104.71 148.957 105.586 148.957C106.461 148.957 107.171 149.667 107.171 150.543Z" fill="#B1B1B1"/>
<path d="M107.171 123.586C107.171 124.461 106.461 125.171 105.586 125.171C104.71 125.171 104 124.461 104 123.586C104 122.71 104.71 122 105.586 122C106.461 122 107.171 122.71 107.171 123.586Z" fill="#B1B1B1"/>
<path d="M134.129 231.414C134.129 232.29 133.419 233 132.543 233C131.667 233 130.957 232.29 130.957 231.414C130.957 230.539 131.667 229.829 132.543 229.829C133.419 229.829 134.129 230.539 134.129 231.414Z" fill="#B1B1B1"/>
<path d="M134.129 204.457C134.129 205.333 133.419 206.043 132.543 206.043C131.667 206.043 130.957 205.333 130.957 204.457C130.957 203.581 131.667 202.871 132.543 202.871C133.419 202.871 134.129 203.581 134.129 204.457Z" fill="#B1B1B1"/>
<path d="M134.129 177.5C134.129 178.376 133.419 179.086 132.543 179.086C131.667 179.086 130.957 178.376 130.957 177.5C130.957 176.624 131.667 175.914 132.543 175.914C133.419 175.914 134.129 176.624 134.129 177.5Z" fill="#B1B1B1"/>
<path d="M134.129 150.543C134.129 151.419 133.419 152.129 132.543 152.129C131.667 152.129 130.957 151.419 130.957 150.543C130.957 149.667 131.667 148.957 132.543 148.957C133.419 148.957 134.129 149.667 134.129 150.543Z" fill="#B1B1B1"/>
<path d="M134.129 123.586C134.129 124.461 133.419 125.171 132.543 125.171C131.667 125.171 130.957 124.461 130.957 123.586C130.957 122.71 131.667 122 132.543 122C133.419 122 134.129 122.71 134.129 123.586Z" fill="#B1B1B1"/>
<path d="M161.086 231.414C161.086 232.29 160.376 233 159.5 233C158.624 233 157.914 232.29 157.914 231.414C157.914 230.539 158.624 229.829 159.5 229.829C160.376 229.829 161.086 230.539 161.086 231.414Z" fill="#B1B1B1"/>
<path d="M161.086 204.457C161.086 205.333 160.376 206.043 159.5 206.043C158.624 206.043 157.914 205.333 157.914 204.457C157.914 203.581 158.624 202.871 159.5 202.871C160.376 202.871 161.086 203.581 161.086 204.457Z" fill="#B1B1B1"/>
<path d="M161.086 177.5C161.086 178.376 160.376 179.086 159.5 179.086C158.624 179.086 157.914 178.376 157.914 177.5C157.914 176.624 158.624 175.914 159.5 175.914C160.376 175.914 161.086 176.624 161.086 177.5Z" fill="#B1B1B1"/>
<path d="M161.086 150.543C161.086 151.419 160.376 152.129 159.5 152.129C158.624 152.129 157.914 151.419 157.914 150.543C157.914 149.667 158.624 148.957 159.5 148.957C160.376 148.957 161.086 149.667 161.086 150.543Z" fill="#B1B1B1"/>
<path d="M161.086 123.586C161.086 124.461 160.376 125.171 159.5 125.171C158.624 125.171 157.914 124.461 157.914 123.586C157.914 122.71 158.624 122 159.5 122C160.376 122 161.086 122.71 161.086 123.586Z" fill="#B1B1B1"/>
<path d="M188.043 231.414C188.043 232.29 187.333 233 186.457 233C185.581 233 184.871 232.29 184.871 231.414C184.871 230.539 185.581 229.829 186.457 229.829C187.333 229.829 188.043 230.539 188.043 231.414Z" fill="#B1B1B1"/>
<path d="M188.043 204.457C188.043 205.333 187.333 206.043 186.457 206.043C185.581 206.043 184.871 205.333 184.871 204.457C184.871 203.581 185.581 202.871 186.457 202.871C187.333 202.871 188.043 203.581 188.043 204.457Z" fill="#B1B1B1"/>
<path d="M188.043 177.5C188.043 178.376 187.333 179.086 186.457 179.086C185.581 179.086 184.871 178.376 184.871 177.5C184.871 176.624 185.581 175.914 186.457 175.914C187.333 175.914 188.043 176.624 188.043 177.5Z" fill="#B1B1B1"/>
<path d="M188.043 150.543C188.043 151.419 187.333 152.129 186.457 152.129C185.581 152.129 184.871 151.419 184.871 150.543C184.871 149.667 185.581 148.957 186.457 148.957C187.333 148.957 188.043 149.667 188.043 150.543Z" fill="#B1B1B1"/>
<path d="M188.043 123.586C188.043 124.461 187.333 125.171 186.457 125.171C185.581 125.171 184.871 124.461 184.871 123.586C184.871 122.71 185.581 122 186.457 122C187.333 122 188.043 122.71 188.043 123.586Z" fill="#B1B1B1"/>
<path d="M215 231.414C215 232.29 214.29 233 213.414 233C212.539 233 211.829 232.29 211.829 231.414C211.829 230.539 212.539 229.829 213.414 229.829C214.29 229.829 215 230.539 215 231.414Z" fill="#B1B1B1"/>
<path d="M215 204.457C215 205.333 214.29 206.043 213.414 206.043C212.539 206.043 211.829 205.333 211.829 204.457C211.829 203.581 212.539 202.871 213.414 202.871C214.29 202.871 215 203.581 215 204.457Z" fill="#B1B1B1"/>
<path d="M215 177.5C215 178.376 214.29 179.086 213.414 179.086C212.539 179.086 211.829 178.376 211.829 177.5C211.829 176.624 212.539 175.914 213.414 175.914C214.29 175.914 215 176.624 215 177.5Z" fill="#B1B1B1"/>
<path d="M215 150.543C215 151.419 214.29 152.129 213.414 152.129C212.539 152.129 211.829 151.419 211.829 150.543C211.829 149.667 212.539 148.957 213.414 148.957C214.29 148.957 215 149.667 215 150.543Z" fill="#B1B1B1"/>
<path d="M215 123.586C215 124.461 214.29 125.171 213.414 125.171C212.539 125.171 211.829 124.461 211.829 123.586C211.829 122.71 212.539 122 213.414 122C214.29 122 215 122.71 215 123.586Z" fill="#B1B1B1"/>
</svg>
