<svg width="159" height="630" viewBox="0 0 159 630" fill="none" xmlns="http://www.w3.org/2000/svg">
<path d="M116.135 51.5H57.8652L87 0.999023L116.135 51.5Z" stroke="#F5F5F5"/>
<path d="M158.104 161.5H117.896L138 128.951L158.104 161.5Z" stroke="#F5F5F5"/>
<path d="M-20.8286 628.414C-20.8286 629.29 -21.5385 630 -22.4143 630C-23.2901 630 -24 629.29 -24 628.414C-24 627.539 -23.2901 626.829 -22.4143 626.829C-21.5385 626.829 -20.8286 627.539 -20.8286 628.414Z" fill="#B1B1B1"/>
<path d="M-20.8286 601.457C-20.8286 602.333 -21.5385 603.043 -22.4143 603.043C-23.2901 603.043 -24 602.333 -24 601.457C-24 600.581 -23.2901 599.871 -22.4143 599.871C-21.5385 599.871 -20.8286 600.581 -20.8286 601.457Z" fill="#B1B1B1"/>
<path d="M-20.8286 574.5C-20.8286 575.376 -21.5385 576.086 -22.4143 576.086C-23.2901 576.086 -24 575.376 -24 574.5C-24 573.624 -23.2901 572.914 -22.4143 572.914C-21.5385 572.914 -20.8286 573.624 -20.8286 574.5Z" fill="#B1B1B1"/>
<path d="M-20.8286 547.543C-20.8286 548.419 -21.5385 549.129 -22.4143 549.129C-23.2901 549.129 -24 548.419 -24 547.543C-24 546.667 -23.2901 545.957 -22.4143 545.957C-21.5385 545.957 -20.8286 546.667 -20.8286 547.543Z" fill="#B1B1B1"/>
<path d="M-20.8286 520.586C-20.8286 521.461 -21.5385 522.171 -22.4143 522.171C-23.2901 522.171 -24 521.461 -24 520.586C-24 519.71 -23.2901 519 -22.4143 519C-21.5385 519 -20.8286 519.71 -20.8286 520.586Z" fill="#B1B1B1"/>
<path d="M6.12857 628.414C6.12857 629.29 5.41862 630 4.54286 630C3.66709 630 2.95714 629.29 2.95714 628.414C2.95714 627.539 3.66709 626.829 4.54286 626.829C5.41862 626.829 6.12857 627.539 6.12857 628.414Z" fill="#B1B1B1"/>
<path d="M6.12857 601.457C6.12857 602.333 5.41862 603.043 4.54286 603.043C3.66709 603.043 2.95714 602.333 2.95714 601.457C2.95714 600.581 3.66709 599.871 4.54286 599.871C5.41862 599.871 6.12857 600.581 6.12857 601.457Z" fill="#B1B1B1"/>
<path d="M6.12857 574.5C6.12857 575.376 5.41862 576.086 4.54286 576.086C3.66709 576.086 2.95714 575.376 2.95714 574.5C2.95714 573.624 3.66709 572.914 4.54286 572.914C5.41862 572.914 6.12857 573.624 6.12857 574.5Z" fill="#B1B1B1"/>
<path d="M6.12857 547.543C6.12857 548.419 5.41862 549.129 4.54286 549.129C3.66709 549.129 2.95714 548.419 2.95714 547.543C2.95714 546.667 3.66709 545.957 4.54286 545.957C5.41862 545.957 6.12857 546.667 6.12857 547.543Z" fill="#B1B1B1"/>
<path d="M6.12857 520.586C6.12857 521.461 5.41862 522.171 4.54286 522.171C3.66709 522.171 2.95714 521.461 2.95714 520.586C2.95714 519.71 3.66709 519 4.54286 519C5.41862 519 6.12857 519.71 6.12857 520.586Z" fill="#B1B1B1"/>
<path d="M33.0857 628.414C33.0857 629.29 32.3758 630 31.5 630C30.6242 630 29.9143 629.29 29.9143 628.414C29.9143 627.539 30.6242 626.829 31.5 626.829C32.3758 626.829 33.0857 627.539 33.0857 628.414Z" fill="#B1B1B1"/>
<path d="M33.0857 601.457C33.0857 602.333 32.3758 603.043 31.5 603.043C30.6242 603.043 29.9143 602.333 29.9143 601.457C29.9143 600.581 30.6242 599.871 31.5 599.871C32.3758 599.871 33.0857 600.581 33.0857 601.457Z" fill="#B1B1B1"/>
<path d="M33.0857 574.5C33.0857 575.376 32.3758 576.086 31.5 576.086C30.6242 576.086 29.9143 575.376 29.9143 574.5C29.9143 573.624 30.6242 572.914 31.5 572.914C32.3758 572.914 33.0857 573.624 33.0857 574.5Z" fill="#B1B1B1"/>
<path d="M33.0857 547.543C33.0857 548.419 32.3758 549.129 31.5 549.129C30.6242 549.129 29.9143 548.419 29.9143 547.543C29.9143 546.667 30.6242 545.957 31.5 545.957C32.3758 545.957 33.0857 546.667 33.0857 547.543Z" fill="#B1B1B1"/>
<path d="M33.0857 520.586C33.0857 521.461 32.3758 522.171 31.5 522.171C30.6242 522.171 29.9143 521.461 29.9143 520.586C29.9143 519.71 30.6242 519 31.5 519C32.3758 519 33.0857 519.71 33.0857 520.586Z" fill="#B1B1B1"/>
<path d="M60.0429 628.414C60.0429 629.29 59.3329 630 58.4571 630C57.5814 630 56.8714 629.29 56.8714 628.414C56.8714 627.539 57.5814 626.829 58.4571 626.829C59.3329 626.829 60.0429 627.539 60.0429 628.414Z" fill="#B1B1B1"/>
<path d="M60.0429 601.457C60.0429 602.333 59.3329 603.043 58.4571 603.043C57.5814 603.043 56.8714 602.333 56.8714 601.457C56.8714 600.581 57.5814 599.871 58.4571 599.871C59.3329 599.871 60.0429 600.581 60.0429 601.457Z" fill="#B1B1B1"/>
<path d="M60.0429 574.5C60.0429 575.376 59.3329 576.086 58.4571 576.086C57.5814 576.086 56.8714 575.376 56.8714 574.5C56.8714 573.624 57.5814 572.914 58.4571 572.914C59.3329 572.914 60.0429 573.624 60.0429 574.5Z" fill="#B1B1B1"/>
<path d="M60.0429 547.543C60.0429 548.419 59.3329 549.129 58.4571 549.129C57.5814 549.129 56.8714 548.419 56.8714 547.543C56.8714 546.667 57.5814 545.957 58.4571 545.957C59.3329 545.957 60.0429 546.667 60.0429 547.543Z" fill="#B1B1B1"/>
<path d="M60.0429 520.586C60.0429 521.461 59.3329 522.171 58.4571 522.171C57.5814 522.171 56.8714 521.461 56.8714 520.586C56.8714 519.71 57.5814 519 58.4571 519C59.3329 519 60.0429 519.71 60.0429 520.586Z" fill="#B1B1B1"/>
<path d="M87 628.414C87 629.29 86.2901 630 85.4143 630C84.5385 630 83.8286 629.29 83.8286 628.414C83.8286 627.539 84.5385 626.829 85.4143 626.829C86.2901 626.829 87 627.539 87 628.414Z" fill="#B1B1B1"/>
<path d="M87 601.457C87 602.333 86.2901 603.043 85.4143 603.043C84.5385 603.043 83.8286 602.333 83.8286 601.457C83.8286 600.581 84.5385 599.871 85.4143 599.871C86.2901 599.871 87 600.581 87 601.457Z" fill="#B1B1B1"/>
<path d="M87 574.5C87 575.376 86.2901 576.086 85.4143 576.086C84.5385 576.086 83.8286 575.376 83.8286 574.5C83.8286 573.624 84.5385 572.914 85.4143 572.914C86.2901 572.914 87 573.624 87 574.5Z" fill="#B1B1B1"/>
<path d="M87 547.543C87 548.419 86.2901 549.129 85.4143 549.129C84.5385 549.129 83.8286 548.419 83.8286 547.543C83.8286 546.667 84.5385 545.957 85.4143 545.957C86.2901 545.957 87 546.667 87 547.543Z" fill="#B1B1B1"/>
<path d="M87 520.586C87 521.461 86.2901 522.171 85.4143 522.171C84.5385 522.171 83.8286 521.461 83.8286 520.586C83.8286 519.71 84.5385 519 85.4143 519C86.2901 519 87 519.71 87 520.586Z" fill="#B1B1B1"/>
</svg>
