<svg width="16" height="15" viewBox="0 0 16 15" fill="none" xmlns="http://www.w3.org/2000/svg">
<path d="M7.83155 1.35085C9.83663 1.35085 10.0741 1.35964 10.8626 1.3948C11.5955 1.42704 11.9912 1.55011 12.255 1.65267C12.6039 1.78746 12.856 1.95155 13.1169 2.21235C13.3807 2.47607 13.5419 2.72514 13.6768 3.07384C13.7794 3.33757 13.9025 3.73608 13.9347 4.46572C13.9699 5.25689 13.9787 5.49424 13.9787 7.49561C13.9787 9.4999 13.9699 9.73725 13.9347 10.5255C13.9025 11.2581 13.7794 11.6536 13.6768 11.9174C13.5419 12.2661 13.3778 12.5181 13.1169 12.7789C12.853 13.0426 12.6039 13.2038 12.255 13.3385C11.9912 13.4411 11.5925 13.5642 10.8626 13.5964C10.0711 13.6316 9.8337 13.6404 7.83155 13.6404C5.82646 13.6404 5.58902 13.6316 4.80047 13.5964C4.06762 13.5642 3.67188 13.4411 3.40806 13.3385C3.05922 13.2038 2.80712 13.0397 2.54622 12.7789C2.2824 12.5151 2.12117 12.2661 1.98632 11.9174C1.88372 11.6536 1.76061 11.2551 1.72836 10.5255C1.69318 9.73432 1.68439 9.49697 1.68439 7.49561C1.68439 5.49131 1.69318 5.25396 1.72836 4.46572C1.76061 3.73315 1.88372 3.33757 1.98632 3.07384C2.12117 2.72514 2.28533 2.47314 2.54622 2.21235C2.81005 1.94862 3.05922 1.78746 3.40806 1.65267C3.67188 1.55011 4.07055 1.42704 4.80047 1.3948C5.58902 1.35964 5.82646 1.35085 7.83155 1.35085ZM7.83155 0C5.79422 0 5.53919 0.00879078 4.73891 0.0439539C3.94157 0.079117 3.3934 0.208048 2.91851 0.392655C2.4231 0.586052 2.00391 0.840985 1.58765 1.26001C1.16846 1.67611 0.913429 2.09514 0.719957 2.58742C0.535278 3.06505 0.406296 3.61008 0.37112 4.40711C0.335943 5.21 0.327148 5.46493 0.327148 7.50147C0.327148 9.538 0.335943 9.79293 0.37112 10.5929C0.406296 11.3899 0.535278 11.9379 0.719957 12.4126C0.913429 12.9078 1.16846 13.3268 1.58765 13.7429C2.00391 14.159 2.4231 14.4169 2.91558 14.6073C3.3934 14.792 3.93864 14.9209 4.73598 14.956C5.53626 14.9912 5.79129 15 7.82861 15C9.86594 15 10.121 14.9912 10.9212 14.956C11.7186 14.9209 12.2668 14.792 12.7416 14.6073C13.2341 14.4169 13.6533 14.159 14.0696 13.7429C14.4858 13.3268 14.7438 12.9078 14.9343 12.4155C15.119 11.9379 15.248 11.3929 15.2832 10.5958C15.3184 9.79586 15.3271 9.54093 15.3271 7.5044C15.3271 5.46787 15.3184 5.21293 15.2832 4.41297C15.248 3.61594 15.119 3.06798 14.9343 2.59328C14.7497 2.09514 14.4946 1.67611 14.0754 1.26001C13.6592 0.843915 13.24 0.586052 12.7475 0.395585C12.2697 0.210979 11.7245 0.0820473 10.9271 0.0468842C10.1239 0.00879078 9.86887 0 7.83155 0Z" fill="white"/>
<path d="M7.83154 3.64817C5.70335 3.64817 3.97675 5.3741 3.97675 7.50147C3.97675 9.62883 5.70335 11.3548 7.83154 11.3548C9.95974 11.3548 11.6863 9.62883 11.6863 7.50147C11.6863 5.3741 9.95974 3.64817 7.83154 3.64817ZM7.83154 10.001C6.45085 10.001 5.33106 8.88162 5.33106 7.50147C5.33106 6.12131 6.45085 5.00195 7.83154 5.00195C9.21224 5.00195 10.332 6.12131 10.332 7.50147C10.332 8.88162 9.21224 10.001 7.83154 10.001Z" fill="white"/>
<path d="M12.7387 3.49577C12.7387 3.99392 12.3342 4.39536 11.8388 4.39536C11.3404 4.39536 10.9388 3.99099 10.9388 3.49577C10.9388 2.99763 11.3434 2.59618 11.8388 2.59618C12.3342 2.59618 12.7387 3.00056 12.7387 3.49577Z" fill="white"/>
</svg>
