<svg width="296" height="573" viewBox="0 0 296 573" fill="none" xmlns="http://www.w3.org/2000/svg">
<path d="M184.106 426.5H131.894L158 383.955L184.106 426.5Z" stroke="#F5F5F5"/>
<path d="M281.106 294.5H185.894L233.5 216.955L281.106 294.5Z" stroke="#F5F5F5"/>
<path d="M-39.8286 571.414C-39.8286 572.29 -40.5385 573 -41.4143 573C-42.2901 573 -43 572.29 -43 571.414C-43 570.539 -42.2901 569.829 -41.4143 569.829C-40.5385 569.829 -39.8286 570.539 -39.8286 571.414Z" fill="#B1B1B1"/>
<path d="M-39.8286 544.457C-39.8286 545.333 -40.5385 546.043 -41.4143 546.043C-42.2901 546.043 -43 545.333 -43 544.457C-43 543.581 -42.2901 542.871 -41.4143 542.871C-40.5385 542.871 -39.8286 543.581 -39.8286 544.457Z" fill="#B1B1B1"/>
<path d="M-39.8286 517.5C-39.8286 518.376 -40.5385 519.086 -41.4143 519.086C-42.2901 519.086 -43 518.376 -43 517.5C-43 516.624 -42.2901 515.914 -41.4143 515.914C-40.5385 515.914 -39.8286 516.624 -39.8286 517.5Z" fill="#B1B1B1"/>
<path d="M-39.8286 490.543C-39.8286 491.419 -40.5385 492.129 -41.4143 492.129C-42.2901 492.129 -43 491.419 -43 490.543C-43 489.667 -42.2901 488.957 -41.4143 488.957C-40.5385 488.957 -39.8286 489.667 -39.8286 490.543Z" fill="#B1B1B1"/>
<path d="M-39.8286 463.586C-39.8286 464.461 -40.5385 465.171 -41.4143 465.171C-42.2901 465.171 -43 464.461 -43 463.586C-43 462.71 -42.2901 462 -41.4143 462C-40.5385 462 -39.8286 462.71 -39.8286 463.586Z" fill="#B1B1B1"/>
<path d="M-12.8714 571.414C-12.8714 572.29 -13.5814 573 -14.4571 573C-15.3329 573 -16.0429 572.29 -16.0429 571.414C-16.0429 570.539 -15.3329 569.829 -14.4571 569.829C-13.5814 569.829 -12.8714 570.539 -12.8714 571.414Z" fill="#B1B1B1"/>
<path d="M-12.8714 544.457C-12.8714 545.333 -13.5814 546.043 -14.4571 546.043C-15.3329 546.043 -16.0429 545.333 -16.0429 544.457C-16.0429 543.581 -15.3329 542.871 -14.4571 542.871C-13.5814 542.871 -12.8714 543.581 -12.8714 544.457Z" fill="#B1B1B1"/>
<path d="M-12.8714 517.5C-12.8714 518.376 -13.5814 519.086 -14.4571 519.086C-15.3329 519.086 -16.0429 518.376 -16.0429 517.5C-16.0429 516.624 -15.3329 515.914 -14.4571 515.914C-13.5814 515.914 -12.8714 516.624 -12.8714 517.5Z" fill="#B1B1B1"/>
<path d="M-12.8714 490.543C-12.8714 491.419 -13.5814 492.129 -14.4571 492.129C-15.3329 492.129 -16.0429 491.419 -16.0429 490.543C-16.0429 489.667 -15.3329 488.957 -14.4571 488.957C-13.5814 488.957 -12.8714 489.667 -12.8714 490.543Z" fill="#B1B1B1"/>
<path d="M-12.8714 463.586C-12.8714 464.461 -13.5814 465.171 -14.4571 465.171C-15.3329 465.171 -16.0429 464.461 -16.0429 463.586C-16.0429 462.71 -15.3329 462 -14.4571 462C-13.5814 462 -12.8714 462.71 -12.8714 463.586Z" fill="#B1B1B1"/>
<path d="M14.0857 571.414C14.0857 572.29 13.3758 573 12.5 573C11.6242 573 10.9143 572.29 10.9143 571.414C10.9143 570.539 11.6242 569.829 12.5 569.829C13.3758 569.829 14.0857 570.539 14.0857 571.414Z" fill="#B1B1B1"/>
<path d="M14.0857 544.457C14.0857 545.333 13.3758 546.043 12.5 546.043C11.6242 546.043 10.9143 545.333 10.9143 544.457C10.9143 543.581 11.6242 542.871 12.5 542.871C13.3758 542.871 14.0857 543.581 14.0857 544.457Z" fill="#B1B1B1"/>
<path d="M14.0857 517.5C14.0857 518.376 13.3758 519.086 12.5 519.086C11.6242 519.086 10.9143 518.376 10.9143 517.5C10.9143 516.624 11.6242 515.914 12.5 515.914C13.3758 515.914 14.0857 516.624 14.0857 517.5Z" fill="#B1B1B1"/>
<path d="M14.0857 490.543C14.0857 491.419 13.3758 492.129 12.5 492.129C11.6242 492.129 10.9143 491.419 10.9143 490.543C10.9143 489.667 11.6242 488.957 12.5 488.957C13.3758 488.957 14.0857 489.667 14.0857 490.543Z" fill="#B1B1B1"/>
<path d="M14.0857 463.586C14.0857 464.461 13.3758 465.171 12.5 465.171C11.6242 465.171 10.9143 464.461 10.9143 463.586C10.9143 462.71 11.6242 462 12.5 462C13.3758 462 14.0857 462.71 14.0857 463.586Z" fill="#B1B1B1"/>
<path d="M41.0429 571.414C41.0429 572.29 40.3329 573 39.4571 573C38.5814 573 37.8714 572.29 37.8714 571.414C37.8714 570.539 38.5814 569.829 39.4571 569.829C40.3329 569.829 41.0429 570.539 41.0429 571.414Z" fill="#B1B1B1"/>
<path d="M41.0429 544.457C41.0429 545.333 40.3329 546.043 39.4571 546.043C38.5814 546.043 37.8714 545.333 37.8714 544.457C37.8714 543.581 38.5814 542.871 39.4571 542.871C40.3329 542.871 41.0429 543.581 41.0429 544.457Z" fill="#B1B1B1"/>
<path d="M41.0429 517.5C41.0429 518.376 40.3329 519.086 39.4571 519.086C38.5814 519.086 37.8714 518.376 37.8714 517.5C37.8714 516.624 38.5814 515.914 39.4571 515.914C40.3329 515.914 41.0429 516.624 41.0429 517.5Z" fill="#B1B1B1"/>
<path d="M41.0429 490.543C41.0429 491.419 40.3329 492.129 39.4571 492.129C38.5814 492.129 37.8714 491.419 37.8714 490.543C37.8714 489.667 38.5814 488.957 39.4571 488.957C40.3329 488.957 41.0429 489.667 41.0429 490.543Z" fill="#B1B1B1"/>
<path d="M41.0429 463.586C41.0429 464.461 40.3329 465.171 39.4571 465.171C38.5814 465.171 37.8714 464.461 37.8714 463.586C37.8714 462.71 38.5814 462 39.4571 462C40.3329 462 41.0429 462.71 41.0429 463.586Z" fill="#B1B1B1"/>
<path d="M68 571.414C68 572.29 67.2901 573 66.4143 573C65.5385 573 64.8286 572.29 64.8286 571.414C64.8286 570.539 65.5385 569.829 66.4143 569.829C67.2901 569.829 68 570.539 68 571.414Z" fill="#B1B1B1"/>
<path d="M68 544.457C68 545.333 67.2901 546.043 66.4143 546.043C65.5385 546.043 64.8286 545.333 64.8286 544.457C64.8286 543.581 65.5385 542.871 66.4143 542.871C67.2901 542.871 68 543.581 68 544.457Z" fill="#B1B1B1"/>
<path d="M68 517.5C68 518.376 67.2901 519.086 66.4143 519.086C65.5385 519.086 64.8286 518.376 64.8286 517.5C64.8286 516.624 65.5385 515.914 66.4143 515.914C67.2901 515.914 68 516.624 68 517.5Z" fill="#B1B1B1"/>
<path d="M68 490.543C68 491.419 67.2901 492.129 66.4143 492.129C65.5385 492.129 64.8286 491.419 64.8286 490.543C64.8286 489.667 65.5385 488.957 66.4143 488.957C67.2901 488.957 68 489.667 68 490.543Z" fill="#B1B1B1"/>
<path d="M68 463.586C68 464.461 67.2901 465.171 66.4143 465.171C65.5385 465.171 64.8286 464.461 64.8286 463.586C64.8286 462.71 65.5385 462 66.4143 462C67.2901 462 68 462.71 68 463.586Z" fill="#B1B1B1"/>
<rect x="-21.5" y="250.5" width="89" height="89" stroke="#F5F5F5"/>
<path d="M89.8936 210.5H142.106L116 167.955L89.8936 210.5Z" stroke="#F5F5F5"/>
<path d="M-7.10645 78.5H88.1064L40.5 0.955078L-7.10645 78.5Z" stroke="#F5F5F5"/>
<rect x="-0.5" y="0.5" width="89" height="89" transform="matrix(-1 0 0 1 295 34)" stroke="#F5F5F5"/>
</svg>
