<svg width="352" height="455" viewBox="0 0 352 455" fill="none" xmlns="http://www.w3.org/2000/svg">
<path d="M101.106 82.5H0.893555L51 0.954102L101.106 82.5Z" stroke="#F5F5F5"/>
<path d="M285.171 192.414C285.171 193.29 284.461 194 283.586 194C282.71 194 282 193.29 282 192.414C282 191.539 282.71 190.829 283.586 190.829C284.461 190.829 285.171 191.539 285.171 192.414Z" fill="#B1B1B1"/>
<path d="M285.171 165.457C285.171 166.333 284.461 167.043 283.586 167.043C282.71 167.043 282 166.333 282 165.457C282 164.581 282.71 163.871 283.586 163.871C284.461 163.871 285.171 164.581 285.171 165.457Z" fill="#B1B1B1"/>
<path d="M285.171 138.5C285.171 139.376 284.461 140.086 283.586 140.086C282.71 140.086 282 139.376 282 138.5C282 137.624 282.71 136.914 283.586 136.914C284.461 136.914 285.171 137.624 285.171 138.5Z" fill="#B1B1B1"/>
<path d="M285.171 111.543C285.171 112.419 284.461 113.129 283.586 113.129C282.71 113.129 282 112.419 282 111.543C282 110.667 282.71 109.957 283.586 109.957C284.461 109.957 285.171 110.667 285.171 111.543Z" fill="#B1B1B1"/>
<path d="M285.171 84.5857C285.171 85.4615 284.461 86.1714 283.586 86.1714C282.71 86.1714 282 85.4615 282 84.5857C282 83.7099 282.71 83 283.586 83C284.461 83 285.171 83.7099 285.171 84.5857Z" fill="#B1B1B1"/>
<path d="M312.129 192.414C312.129 193.29 311.419 194 310.543 194C309.667 194 308.957 193.29 308.957 192.414C308.957 191.539 309.667 190.829 310.543 190.829C311.419 190.829 312.129 191.539 312.129 192.414Z" fill="#B1B1B1"/>
<path d="M312.129 165.457C312.129 166.333 311.419 167.043 310.543 167.043C309.667 167.043 308.957 166.333 308.957 165.457C308.957 164.581 309.667 163.871 310.543 163.871C311.419 163.871 312.129 164.581 312.129 165.457Z" fill="#B1B1B1"/>
<path d="M312.129 138.5C312.129 139.376 311.419 140.086 310.543 140.086C309.667 140.086 308.957 139.376 308.957 138.5C308.957 137.624 309.667 136.914 310.543 136.914C311.419 136.914 312.129 137.624 312.129 138.5Z" fill="#B1B1B1"/>
<path d="M312.129 111.543C312.129 112.419 311.419 113.129 310.543 113.129C309.667 113.129 308.957 112.419 308.957 111.543C308.957 110.667 309.667 109.957 310.543 109.957C311.419 109.957 312.129 110.667 312.129 111.543Z" fill="#B1B1B1"/>
<path d="M312.129 84.5857C312.129 85.4615 311.419 86.1714 310.543 86.1714C309.667 86.1714 308.957 85.4615 308.957 84.5857C308.957 83.7099 309.667 83 310.543 83C311.419 83 312.129 83.7099 312.129 84.5857Z" fill="#B1B1B1"/>
<path d="M339.086 192.414C339.086 193.29 338.376 194 337.5 194C336.624 194 335.914 193.29 335.914 192.414C335.914 191.539 336.624 190.829 337.5 190.829C338.376 190.829 339.086 191.539 339.086 192.414Z" fill="#B1B1B1"/>
<path d="M339.086 165.457C339.086 166.333 338.376 167.043 337.5 167.043C336.624 167.043 335.914 166.333 335.914 165.457C335.914 164.581 336.624 163.871 337.5 163.871C338.376 163.871 339.086 164.581 339.086 165.457Z" fill="#B1B1B1"/>
<path d="M339.086 138.5C339.086 139.376 338.376 140.086 337.5 140.086C336.624 140.086 335.914 139.376 335.914 138.5C335.914 137.624 336.624 136.914 337.5 136.914C338.376 136.914 339.086 137.624 339.086 138.5Z" fill="#B1B1B1"/>
<path d="M339.086 111.543C339.086 112.419 338.376 113.129 337.5 113.129C336.624 113.129 335.914 112.419 335.914 111.543C335.914 110.667 336.624 109.957 337.5 109.957C338.376 109.957 339.086 110.667 339.086 111.543Z" fill="#B1B1B1"/>
<path d="M339.086 84.5857C339.086 85.4615 338.376 86.1714 337.5 86.1714C336.624 86.1714 335.914 85.4615 335.914 84.5857C335.914 83.7099 336.624 83 337.5 83C338.376 83 339.086 83.7099 339.086 84.5857Z" fill="#B1B1B1"/>
<path d="M366.043 192.414C366.043 193.29 365.333 194 364.457 194C363.581 194 362.871 193.29 362.871 192.414C362.871 191.539 363.581 190.829 364.457 190.829C365.333 190.829 366.043 191.539 366.043 192.414Z" fill="#B1B1B1"/>
<path d="M366.043 165.457C366.043 166.333 365.333 167.043 364.457 167.043C363.581 167.043 362.871 166.333 362.871 165.457C362.871 164.581 363.581 163.871 364.457 163.871C365.333 163.871 366.043 164.581 366.043 165.457Z" fill="#B1B1B1"/>
<path d="M366.043 138.5C366.043 139.376 365.333 140.086 364.457 140.086C363.581 140.086 362.871 139.376 362.871 138.5C362.871 137.624 363.581 136.914 364.457 136.914C365.333 136.914 366.043 137.624 366.043 138.5Z" fill="#B1B1B1"/>
<path d="M366.043 111.543C366.043 112.419 365.333 113.129 364.457 113.129C363.581 113.129 362.871 112.419 362.871 111.543C362.871 110.667 363.581 109.957 364.457 109.957C365.333 109.957 366.043 110.667 366.043 111.543Z" fill="#B1B1B1"/>
<path d="M366.043 84.5857C366.043 85.4615 365.333 86.1714 364.457 86.1714C363.581 86.1714 362.871 85.4615 362.871 84.5857C362.871 83.7099 363.581 83 364.457 83C365.333 83 366.043 83.7099 366.043 84.5857Z" fill="#B1B1B1"/>
<path d="M393 192.414C393 193.29 392.29 194 391.414 194C390.539 194 389.829 193.29 389.829 192.414C389.829 191.539 390.539 190.829 391.414 190.829C392.29 190.829 393 191.539 393 192.414Z" fill="#B1B1B1"/>
<path d="M393 165.457C393 166.333 392.29 167.043 391.414 167.043C390.539 167.043 389.829 166.333 389.829 165.457C389.829 164.581 390.539 163.871 391.414 163.871C392.29 163.871 393 164.581 393 165.457Z" fill="#B1B1B1"/>
<path d="M393 138.5C393 139.376 392.29 140.086 391.414 140.086C390.539 140.086 389.829 139.376 389.829 138.5C389.829 137.624 390.539 136.914 391.414 136.914C392.29 136.914 393 137.624 393 138.5Z" fill="#B1B1B1"/>
<path d="M393 111.543C393 112.419 392.29 113.129 391.414 113.129C390.539 113.129 389.829 112.419 389.829 111.543C389.829 110.667 390.539 109.957 391.414 109.957C392.29 109.957 393 110.667 393 111.543Z" fill="#B1B1B1"/>
<path d="M393 84.5857C393 85.4615 392.29 86.1714 391.414 86.1714C390.539 86.1714 389.829 85.4615 389.829 84.5857C389.829 83.7099 390.539 83 391.414 83C392.29 83 393 83.7099 393 84.5857Z" fill="#B1B1B1"/>
<rect x="104.5" y="154.5" width="54" height="54" stroke="#F5F5F5"/>
<rect x="159.5" y="24.5" width="78" height="78" stroke="#F5F5F5"/>
<path d="M156.829 438.414C156.829 439.29 157.539 440 158.414 440C159.29 440 160 439.29 160 438.414C160 437.539 159.29 436.829 158.414 436.829C157.539 436.829 156.829 437.539 156.829 438.414Z" fill="#B1B1B1"/>
<path d="M156.829 411.457C156.829 412.333 157.539 413.043 158.414 413.043C159.29 413.043 160 412.333 160 411.457C160 410.581 159.29 409.871 158.414 409.871C157.539 409.871 156.829 410.581 156.829 411.457Z" fill="#B1B1B1"/>
<path d="M156.829 384.5C156.829 385.376 157.539 386.086 158.414 386.086C159.29 386.086 160 385.376 160 384.5C160 383.624 159.29 382.914 158.414 382.914C157.539 382.914 156.829 383.624 156.829 384.5Z" fill="#B1B1B1"/>
<path d="M156.829 357.543C156.829 358.419 157.539 359.129 158.414 359.129C159.29 359.129 160 358.419 160 357.543C160 356.667 159.29 355.957 158.414 355.957C157.539 355.957 156.829 356.667 156.829 357.543Z" fill="#B1B1B1"/>
<path d="M156.829 330.586C156.829 331.461 157.539 332.171 158.414 332.171C159.29 332.171 160 331.461 160 330.586C160 329.71 159.29 329 158.414 329C157.539 329 156.829 329.71 156.829 330.586Z" fill="#B1B1B1"/>
<path d="M129.871 438.414C129.871 439.29 130.581 440 131.457 440C132.333 440 133.043 439.29 133.043 438.414C133.043 437.539 132.333 436.829 131.457 436.829C130.581 436.829 129.871 437.539 129.871 438.414Z" fill="#B1B1B1"/>
<path d="M129.871 411.457C129.871 412.333 130.581 413.043 131.457 413.043C132.333 413.043 133.043 412.333 133.043 411.457C133.043 410.581 132.333 409.871 131.457 409.871C130.581 409.871 129.871 410.581 129.871 411.457Z" fill="#B1B1B1"/>
<path d="M129.871 384.5C129.871 385.376 130.581 386.086 131.457 386.086C132.333 386.086 133.043 385.376 133.043 384.5C133.043 383.624 132.333 382.914 131.457 382.914C130.581 382.914 129.871 383.624 129.871 384.5Z" fill="#B1B1B1"/>
<path d="M129.871 357.543C129.871 358.419 130.581 359.129 131.457 359.129C132.333 359.129 133.043 358.419 133.043 357.543C133.043 356.667 132.333 355.957 131.457 355.957C130.581 355.957 129.871 356.667 129.871 357.543Z" fill="#B1B1B1"/>
<path d="M129.871 330.586C129.871 331.461 130.581 332.171 131.457 332.171C132.333 332.171 133.043 331.461 133.043 330.586C133.043 329.71 132.333 329 131.457 329C130.581 329 129.871 329.71 129.871 330.586Z" fill="#B1B1B1"/>
<path d="M102.914 438.414C102.914 439.29 103.624 440 104.5 440C105.376 440 106.086 439.29 106.086 438.414C106.086 437.539 105.376 436.829 104.5 436.829C103.624 436.829 102.914 437.539 102.914 438.414Z" fill="#B1B1B1"/>
<path d="M102.914 411.457C102.914 412.333 103.624 413.043 104.5 413.043C105.376 413.043 106.086 412.333 106.086 411.457C106.086 410.581 105.376 409.871 104.5 409.871C103.624 409.871 102.914 410.581 102.914 411.457Z" fill="#B1B1B1"/>
<path d="M102.914 384.5C102.914 385.376 103.624 386.086 104.5 386.086C105.376 386.086 106.086 385.376 106.086 384.5C106.086 383.624 105.376 382.914 104.5 382.914C103.624 382.914 102.914 383.624 102.914 384.5Z" fill="#B1B1B1"/>
<path d="M102.914 357.543C102.914 358.419 103.624 359.129 104.5 359.129C105.376 359.129 106.086 358.419 106.086 357.543C106.086 356.667 105.376 355.957 104.5 355.957C103.624 355.957 102.914 356.667 102.914 357.543Z" fill="#B1B1B1"/>
<path d="M102.914 330.586C102.914 331.461 103.624 332.171 104.5 332.171C105.376 332.171 106.086 331.461 106.086 330.586C106.086 329.71 105.376 329 104.5 329C103.624 329 102.914 329.71 102.914 330.586Z" fill="#B1B1B1"/>
<path d="M75.9571 438.414C75.9571 439.29 76.6671 440 77.5429 440C78.4186 440 79.1286 439.29 79.1286 438.414C79.1286 437.539 78.4186 436.829 77.5429 436.829C76.6671 436.829 75.9571 437.539 75.9571 438.414Z" fill="#B1B1B1"/>
<path d="M75.9571 411.457C75.9571 412.333 76.6671 413.043 77.5429 413.043C78.4186 413.043 79.1286 412.333 79.1286 411.457C79.1286 410.581 78.4186 409.871 77.5429 409.871C76.6671 409.871 75.9571 410.581 75.9571 411.457Z" fill="#B1B1B1"/>
<path d="M75.9571 384.5C75.9571 385.376 76.6671 386.086 77.5429 386.086C78.4186 386.086 79.1286 385.376 79.1286 384.5C79.1286 383.624 78.4186 382.914 77.5429 382.914C76.6671 382.914 75.9571 383.624 75.9571 384.5Z" fill="#B1B1B1"/>
<path d="M75.9571 357.543C75.9571 358.419 76.6671 359.129 77.5429 359.129C78.4186 359.129 79.1286 358.419 79.1286 357.543C79.1286 356.667 78.4186 355.957 77.5429 355.957C76.6671 355.957 75.9571 356.667 75.9571 357.543Z" fill="#B1B1B1"/>
<path d="M75.9571 330.586C75.9571 331.461 76.6671 332.171 77.5429 332.171C78.4186 332.171 79.1286 331.461 79.1286 330.586C79.1286 329.71 78.4186 329 77.5429 329C76.6671 329 75.9571 329.71 75.9571 330.586Z" fill="#B1B1B1"/>
<path d="M49 438.414C49 439.29 49.7099 440 50.5857 440C51.4615 440 52.1714 439.29 52.1714 438.414C52.1714 437.539 51.4615 436.829 50.5857 436.829C49.7099 436.829 49 437.539 49 438.414Z" fill="#B1B1B1"/>
<path d="M49 411.457C49 412.333 49.7099 413.043 50.5857 413.043C51.4615 413.043 52.1714 412.333 52.1714 411.457C52.1714 410.581 51.4615 409.871 50.5857 409.871C49.7099 409.871 49 410.581 49 411.457Z" fill="#B1B1B1"/>
<path d="M49 384.5C49 385.376 49.7099 386.086 50.5857 386.086C51.4615 386.086 52.1714 385.376 52.1714 384.5C52.1714 383.624 51.4615 382.914 50.5857 382.914C49.7099 382.914 49 383.624 49 384.5Z" fill="#B1B1B1"/>
<path d="M49 357.543C49 358.419 49.7099 359.129 50.5857 359.129C51.4615 359.129 52.1714 358.419 52.1714 357.543C52.1714 356.667 51.4615 355.957 50.5857 355.957C49.7099 355.957 49 356.667 49 357.543Z" fill="#B1B1B1"/>
<path d="M49 330.586C49 331.461 49.7099 332.171 50.5857 332.171C51.4615 332.171 52.1714 331.461 52.1714 330.586C52.1714 329.71 51.4615 329 50.5857 329C49.7099 329 49 329.71 49 330.586Z" fill="#B1B1B1"/>
<rect x="-0.5" y="0.5" width="54" height="54" transform="matrix(-1 0 0 1 337 400)" stroke="#F5F5F5"/>
<rect x="-0.5" y="0.5" width="78" height="78" transform="matrix(-1 0 0 1 282 270)" stroke="#F5F5F5"/>
</svg>
