<svg width="14" height="14" viewBox="0 0 14 14" fill="none" xmlns="http://www.w3.org/2000/svg">
<path fill-rule="evenodd" clip-rule="evenodd" d="M1.5 0.75C1.5 0.335787 1.16421 0 0.75 0C0.335786 0 0 0.335787 0 0.75V12.9533C0 13.3676 0.335786 13.7033 0.75 13.7033H12.9533C13.3675 13.7033 13.7033 13.3676 13.7033 12.9533C13.7033 12.5391 13.3675 12.2033 12.9533 12.2033H1.5V0.75ZM10.1473 2.28295C9.92694 2.12555 9.6522 2.06424 9.38583 2.11307C9.11946 2.16189 8.88428 2.31665 8.73406 2.54198L5.65582 7.15935L4.17156 5.67509C3.78103 5.28455 3.14787 5.28455 2.75734 5.67509C2.36682 6.06561 2.36682 6.69877 2.75734 7.08929L5.10414 9.43608C5.31598 9.64793 5.61164 9.75363 5.90978 9.72411C6.20791 9.69459 6.47711 9.53296 6.64329 9.28368L9.82528 4.5107L12.2703 6.25721C12.7198 6.57822 13.3443 6.47412 13.6653 6.02471C13.9863 5.57529 13.8822 4.95075 13.4328 4.62973L10.1473 2.28295Z" fill="white"/>
</svg>
