<svg width="14" height="14" viewBox="0 0 14 14" fill="none" xmlns="http://www.w3.org/2000/svg">
<path fill-rule="evenodd" clip-rule="evenodd" d="M3.82382 0.67507C3.78534 0.2918 3.46277 0 3.07757 0H0.749999C0.335786 0 0 0.335786 0 0.75C0 1.16421 0.335786 1.5 0.749999 1.5H2.39911L2.65072 4.00591C2.65063 4.02343 2.65146 4.04102 2.65323 4.05862L3.13548 8.85343C3.13632 8.86176 3.13737 8.87008 3.13862 8.87836C3.19037 9.21959 3.3637 9.53063 3.62667 9.75415C3.88885 9.97696 4.22252 10.0979 4.56653 10.0948H10.4179C10.725 10.1077 11.0283 10.0214 11.2827 9.84836C11.5411 9.67265 11.7349 9.41718 11.8345 9.12099L11.835 9.11942L13.0733 5.3953L13.0736 5.39413C13.1446 5.17892 13.1634 4.94994 13.1286 4.72603C13.0939 4.50291 13.0069 4.29119 12.8747 4.10815C12.7363 3.91398 12.5516 3.75746 12.3373 3.65281C12.126 3.54962 11.8926 3.50012 11.6578 3.50859H4.10833L3.82382 0.67507ZM11.405 12.7445C11.405 12.094 10.8777 11.5667 10.2272 11.5667C9.57665 11.5667 9.0493 12.094 9.0493 12.7445C9.0493 13.395 9.57665 13.9224 10.2272 13.9224C10.8777 13.9224 11.405 13.395 11.405 12.7445ZM5.08117 11.5667C5.73168 11.5667 6.25902 12.094 6.25902 12.7445C6.25902 13.395 5.73168 13.9224 5.08117 13.9224C4.43065 13.9224 3.90331 13.395 3.90331 12.7445C3.90331 12.094 4.43065 11.5667 5.08117 11.5667Z" fill="black"/>
</svg>
