<svg width="17" height="11" viewBox="0 0 17 11" fill="none" xmlns="http://www.w3.org/2000/svg">
<path d="M14.3912 0.91184C13.3077 0.489789 12.1458 0.17884 10.9309 0.000747078C10.9088 -0.00269007 10.8867 0.00589954 10.8753 0.0230792C10.7259 0.248701 10.5604 0.543043 10.4444 0.774395C9.13779 0.608331 7.83784 0.608331 6.55798 0.774395C6.44204 0.537901 6.27051 0.248701 6.12041 0.0230792C6.10901 0.00647274 6.08691 -0.00211687 6.06479 0.000747078C4.8506 0.178271 3.68869 0.48922 2.6045 0.91184C2.59511 0.915275 2.58706 0.921007 2.58173 0.928446C0.377819 3.72357 -0.225923 6.44999 0.0702526 9.14261C0.0715927 9.15578 0.0803037 9.16838 0.0923653 9.17639C1.54644 10.0829 2.95496 10.6332 4.33732 10.998C4.35945 11.0037 4.38289 10.9969 4.39697 10.9814C4.72396 10.6023 5.01545 10.2026 5.26538 9.78225C5.28013 9.75764 5.26605 9.72843 5.2359 9.71869C4.77355 9.5698 4.3333 9.38827 3.90981 9.18212C3.87631 9.16552 3.87363 9.12484 3.90445 9.10537C3.99356 9.04868 4.08271 8.9897 4.1678 8.93014C4.1832 8.91927 4.20465 8.91697 4.22275 8.92384C7.00491 10.0022 10.0169 10.0022 12.7663 8.92384C12.7844 8.9164 12.8058 8.9187 12.8219 8.92957C12.907 8.98913 12.9961 9.04868 13.0859 9.10537C13.1167 9.12484 13.1147 9.16552 13.0812 9.18212C12.6577 9.39227 12.2175 9.5698 11.7544 9.71812C11.7243 9.72786 11.7109 9.75764 11.7256 9.78225C11.9809 10.202 12.2724 10.6017 12.5934 10.9808C12.6068 10.9969 12.6309 11.0037 12.653 10.998C14.0421 10.6332 15.4506 10.0829 16.9047 9.17639C16.9174 9.16838 16.9255 9.15635 16.9268 9.14318C17.2813 6.03022 16.3331 3.32615 14.4133 0.929016C14.4086 0.921007 14.4006 0.915275 14.3912 0.91184ZM5.68085 7.50309C4.84323 7.50309 4.15305 6.85027 4.15305 6.04855C4.15305 5.24683 4.82984 4.59401 5.68085 4.59401C6.53854 4.59401 7.22203 5.25256 7.20862 6.04855C7.20862 6.85027 6.53183 7.50309 5.68085 7.50309ZM11.3296 7.50309C10.492 7.50309 9.80184 6.85027 9.80184 6.04855C9.80184 5.24683 10.4786 4.59401 11.3296 4.59401C12.1873 4.59401 12.8708 5.25256 12.8574 6.04855C12.8574 6.85027 12.1873 7.50309 11.3296 7.50309Z" fill="white"/>
</svg>
