<svg width="16" height="15" viewBox="0 0 16 15" fill="none" xmlns="http://www.w3.org/2000/svg">
<g clip-path="url(#clip0_153_3104)">
<path d="M14.2715 0H1.48926C0.876953 0 0.381836 0.483398 0.381836 1.08105V13.916C0.381836 14.5137 0.876953 15 1.48926 15H14.2715C14.8838 15 15.3818 14.5137 15.3818 13.9189V1.08105C15.3818 0.483398 14.8838 0 14.2715 0ZM4.83203 12.7822H2.60547V5.62207H4.83203V12.7822ZM3.71875 4.64648C3.00391 4.64648 2.42676 4.06934 2.42676 3.35742C2.42676 2.64551 3.00391 2.06836 3.71875 2.06836C4.43066 2.06836 5.00781 2.64551 5.00781 3.35742C5.00781 4.06641 4.43066 4.64648 3.71875 4.64648ZM13.1641 12.7822H10.9404V9.30176C10.9404 8.47266 10.9258 7.40332 9.7832 7.40332C8.62598 7.40332 8.4502 8.30859 8.4502 9.24316V12.7822H6.22949V5.62207H8.3623V6.60059H8.3916C8.6875 6.03809 9.41406 5.44336 10.4951 5.44336C12.748 5.44336 13.1641 6.92578 13.1641 8.85352V12.7822Z" fill="white"/>
</g>
<defs>
<clipPath id="clip0_153_3104">
<rect width="15" height="15" fill="white" transform="translate(0.381836)"/>
</clipPath>
</defs>
</svg>
