<svg width="22" height="15" viewBox="0 0 22 15" fill="none" xmlns="http://www.w3.org/2000/svg">
<path d="M21.115 3.2366C21.115 3.2366 20.9067 1.76618 20.2652 1.12052C19.4529 0.270758 18.5448 0.266592 18.1283 0.216606C15.1458 -1.2359e-07 10.6679 0 10.6679 0H10.6595C10.6595 0 6.18162 -1.2359e-07 3.19911 0.216606C2.78256 0.266592 1.87448 0.270758 1.0622 1.12052C0.420716 1.76618 0.216606 3.2366 0.216606 3.2366C0.216606 3.2366 0 4.96529 0 6.68981V8.30603C0 10.0305 0.212441 11.7592 0.212441 11.7592C0.212441 11.7592 0.420716 13.2297 1.05804 13.8753C1.87031 14.7251 2.93668 14.6959 3.41155 14.7876C5.11941 14.95 10.6637 15 10.6637 15C10.6637 15 15.1458 14.9917 18.1283 14.7792C18.5448 14.7292 19.4529 14.7251 20.2652 13.8753C20.9067 13.2297 21.115 11.7592 21.115 11.7592C21.115 11.7592 21.3274 10.0347 21.3274 8.30603V6.68981C21.3274 4.96529 21.115 3.2366 21.115 3.2366ZM8.46015 10.268V4.27381L14.221 7.28131L8.46015 10.268Z" fill="white"/>
</svg>
